<svg width="213" height="125" viewBox="0 0 213 125" fill="none" xmlns="http://www.w3.org/2000/svg">
<path opacity="0.887835" fill-rule="evenodd" clip-rule="evenodd" d="M42.7655 37.6345C53.7239 17.6389 78.1028 4.43587 105.671 5.88068C129.443 7.12652 149.718 18.9558 160.499 35.6743C165.061 34.2043 170.058 33.5171 175.261 33.7898C195.267 34.8382 210.751 49.6794 209.847 66.9384C208.942 84.1974 191.991 97.3387 171.986 96.2903C167.199 96.0394 162.671 94.999 158.565 93.3249C146.293 109.7 124.288 120.011 99.7575 118.726C80.7103 117.728 63.9083 109.935 52.4361 98.2766C49.6099 100.575 45.9455 101.875 42.0093 101.668C34.0522 101.251 27.8428 94.8309 27.5975 87.0591C12.9839 84.3201 2.29887 73.1696 2.96621 60.436C3.70694 46.302 18.1536 35.5698 35.2337 36.465C37.8461 36.6019 40.3688 37.0029 42.7655 37.6345Z" fill="white"/>
</svg>
